<?xml version="1.0" standalone="no"?>
<!DOCTYPE svg PUBLIC "-//W3C//DTD SVG 20010904//EN"
 "http://www.w3.org/TR/2001/REC-SVG-20010904/DTD/svg10.dtd">
<svg version="1.0" xmlns="http://www.w3.org/2000/svg"
 width="512.000000pt" height="512.000000pt" viewBox="0 0 512.000000 512.000000"
 preserveAspectRatio="xMidYMid meet">
<metadata>
Created by potrace 1.14, written by Peter Selinger 2001-2017
</metadata>
<g transform="translate(0.000000,512.000000) scale(0.100000,-0.100000)"
fill="#000000" stroke="none">
<path d="M2505 5113 c-445 -21 -818 -121 -1170 -316 -895 -493 -1410 -1463
-1315 -2477 113 -1214 1090 -2190 2300 -2299 509 -47 1018 57 1455 297 752
413 1248 1163 1324 2002 83 908 -307 1768 -1049 2311 -222 162 -543 316 -815
390 -213 58 -550 100 -730 92z m320 -84 c450 -44 924 -240 1290 -534 508 -410
840 -1013 915 -1665 6 -52 11 -174 11 -270 0 -197 -10 -306 -47 -495 -72 -368
-259 -763 -507 -1070 -83 -103 -259 -279 -362 -362 -307 -248 -702 -435 -1070
-507 -189 -37 -298 -47 -495 -47 -284 0 -514 36 -778 123 -915 300 -1581 1122
-1692 2088 -14 122 -14 418 0 540 112 974 772 1785 1700 2091 335 110 661 144
1035 108z"/>
<path d="M2581 4839 c-51 -37 -45 -44 42 -54 l59 -7 -7 -87 c-4 -47 -11 -115
-16 -150 -5 -35 -8 -65 -6 -68 3 -2 26 9 53 25 l49 28 10 120 10 119 45 5 c45
6 110 44 110 65 0 8 -42 14 -132 18 -73 4 -142 9 -153 11 -13 4 -36 -6 -64
-25z"/>
<path d="M2370 4843 c-19 -12 -33 -41 -63 -132 -20 -64 -51 -145 -67 -179 -16
-34 -26 -64 -22 -66 5 -3 27 4 50 14 30 14 46 28 53 49 11 32 32 41 100 41 43
0 48 -3 74 -40 32 -46 53 -50 95 -18 32 23 40 48 15 48 -20 0 -70 77 -126 196
-52 110 -60 117 -109 87z m53 -205 c-4 -8 -73 -12 -73 -4 0 3 12 40 27 86 3
10 13 -1 28 -30 13 -25 21 -48 18 -52z"/>
<path d="M2193 4840 c-12 -5 -74 -20 -137 -33 -103 -22 -117 -28 -145 -58 -17
-19 -31 -38 -31 -43 0 -5 30 -6 70 -2 l69 6 11 -37 c10 -38 33 -151 45 -227
l7 -39 46 46 46 46 -14 43 c-7 24 -21 76 -30 116 -16 68 -17 74 -1 79 55 17
72 29 95 64 14 21 26 41 26 44 0 8 -32 5 -57 -5z"/>
<path d="M2973 4794 c-39 -17 -42 -31 -8 -44 42 -16 26 -79 -24 -100 -38 -15
-39 -27 -6 -40 30 -11 30 -12 5 -91 -10 -35 -18 -64 -17 -65 1 -1 49 -13 105
-27 l104 -26 39 26 c34 22 50 43 34 43 -19 0 -161 33 -166 38 -3 4 -2 22 3 40
8 30 11 32 46 27 27 -4 46 0 70 14 51 33 43 44 -42 56 -46 7 -53 16 -40 49 5
12 17 14 62 10 46 -4 63 -1 90 15 17 11 32 25 32 30 0 5 -30 14 -67 21 -38 6
-88 18 -112 26 -53 17 -66 17 -108 -2z"/>
<path d="M1709 4697 c-54 -28 -109 -105 -109 -151 0 -21 8 -40 24 -55 23 -21
30 -22 109 -16 80 7 85 6 100 -15 20 -28 12 -48 -22 -57 -33 -9 -51 -5 -74 15
-16 14 -19 14 -32 -4 -9 -10 -23 -32 -31 -48 -16 -28 -15 -31 6 -48 28 -23 54
-22 105 1 68 31 135 123 135 186 0 50 -30 65 -134 65 -71 0 -97 4 -106 15 -10
13 -9 19 6 36 18 20 37 21 75 5 12 -5 25 3 44 28 23 30 25 39 15 51 -18 22
-60 18 -111 -8z"/>
<path d="M3476 4598 c-32 -51 -46 -219 -25 -304 20 -78 73 -93 168 -49 71 33
164 101 226 164 l49 51 -75 0 -76 0 -18 -40 c-10 -22 -40 -60 -66 -85 -58 -54
-94 -60 -110 -17 -17 40 4 193 34 254 l24 48 -58 0 c-50 0 -61 -3 -73 -22z"/>
<path d="M1205 4421 c-40 -24 -60 -48 -79 -94 -14 -34 -14 -38 0 -44 9 -3 21
3 29 14 8 11 28 26 45 33 60 25 157 -26 187 -98 12 -30 12 -37 -2 -58 -12 -19
-24 -24 -59 -24 -56 0 -105 33 -131 88 -23 50 -40 54 -49 11 -18 -91 8 -155
75 -189 121 -62 225 29 222 195 0 57 -18 98 -60 137 -53 50 -125 62 -178 29z"/>
<path d="M2315 4384 c-823 -111 -1472 -764 -1579 -1589 -90 -690 219 -1372
799 -1760 312 -208 660 -315 1030 -315 916 0 1702 693 1820 1605 129 1004
-584 1929 -1590 2059 -142 19 -342 19 -480 0z m278 -351 l43 -88 -27 -140
c-35 -178 -35 -185 -5 -185 12 0 45 -11 71 -25 26 -14 49 -24 52 -22 2 3 44
62 93 132 l88 128 93 33 c51 19 94 32 96 31 1 -2 -12 -45 -31 -96 l-33 -93
-124 -84 c-68 -47 -128 -89 -132 -93 -4 -4 4 -30 18 -57 40 -78 47 -194 11
-194 -26 0 -113 -89 -142 -144 -31 -59 -43 -66 -114 -66 -73 0 -89 9 -115 60
-33 65 -69 106 -122 137 l-45 26 4 68 c4 47 13 81 31 113 l26 46 -134 93 -134
92 -31 89 c-16 49 -28 91 -26 94 3 2 44 -9 93 -25 l87 -29 88 -129 c49 -71 90
-131 93 -133 2 -2 28 7 56 22 29 14 61 26 71 26 24 0 23 19 -8 186 l-26 138
43 88 c24 48 44 88 46 88 2 0 22 -39 46 -87z m-551 -541 c-6 -72 15 -111 87
-160 l61 -40 -45 -22 c-50 -24 -116 -94 -147 -154 -24 -48 -32 -39 -49 55 -16
87 -8 224 15 269 23 45 65 100 75 100 4 0 6 -22 3 -48z m1099 -79 c8 -27 14
-84 14 -128 0 -77 -21 -205 -34 -205 -3 0 -15 18 -25 40 -25 53 -95 124 -146
150 l-42 21 65 45 c60 41 67 50 75 92 6 26 8 63 5 82 l-4 35 39 -42 c23 -25
45 -62 53 -90z m-1254 -20 c19 -4 23 -10 19 -27 -3 -11 -6 -43 -6 -71 0 -49
-1 -50 -18 -28 -9 12 -51 49 -92 84 l-75 62 74 -7 c41 -3 85 -9 98 -13z m1458
-9 c-16 -14 -58 -50 -92 -80 l-63 -55 0 70 0 70 38 6 c20 4 44 8 52 10 8 1 33
3 55 4 l40 0 -30 -25z m-1542 -94 c67 -62 107 -113 107 -135 0 -3 -17 13 -37
37 -45 51 -115 115 -161 147 -18 12 -30 27 -27 32 9 14 32 -2 118 -81z m1610
71 c-4 -4 -34 -27 -66 -51 -32 -24 -84 -71 -114 -104 l-56 -61 24 44 c21 39
60 78 164 164 16 14 35 22 43 20 7 -3 10 -9 5 -12z m-1151 -111 c21 -6 51 -22
67 -36 32 -27 76 -92 68 -100 -2 -3 -33 0 -67 5 -112 18 -192 -12 -257 -97
-26 -34 -31 -47 -23 -62 29 -54 -1 -147 -60 -187 -65 -45 -129 -19 -176 71
-16 31 -32 56 -36 56 -4 0 -23 -33 -42 -72 -65 -133 -69 -332 -14 -573 57
-249 144 -417 303 -585 81 -85 75 -86 -40 -5 -247 175 -435 529 -435 817 1
163 57 320 151 418 60 63 122 91 212 98 l67 5 35 66 c49 93 86 135 147 165 60
30 52 29 100 16z m664 -10 c56 -28 117 -95 156 -174 l31 -64 71 -4 c87 -6 155
-38 212 -100 114 -124 163 -296 143 -503 -20 -214 -167 -501 -336 -655 -48
-44 -194 -150 -206 -150 -2 0 28 33 67 73 217 220 330 510 343 878 5 141 3
174 -12 220 -16 51 -64 139 -75 139 -3 0 -18 -25 -34 -56 -47 -89 -106 -114
-173 -73 -58 36 -88 119 -64 182 7 18 5 31 -6 48 -71 106 -164 143 -290 116
-35 -8 -63 -12 -63 -10 0 29 75 111 125 137 40 21 60 20 111 -4z m-506 -182
c85 -29 183 -29 264 1 133 48 220 37 291 -34 41 -41 43 -46 34 -77 -27 -93 36
-202 132 -228 54 -15 117 13 158 70 l30 42 16 -37 c20 -48 19 -62 -3 -69 -10
-4 -32 -19 -48 -35 -20 -20 -44 -30 -79 -35 -65 -8 -117 -44 -144 -98 -20 -40
-20 -43 -4 -46 78 -16 119 -74 129 -183 11 -122 -47 -323 -138 -477 -41 -70
-188 -219 -246 -251 l-43 -23 35 46 c20 26 39 53 43 60 5 7 18 19 31 25 17 9
21 16 13 25 -8 10 -88 13 -351 14 -192 0 -340 -4 -340 -9 0 -5 11 -16 24 -24
25 -17 110 -124 103 -131 -2 -3 -31 14 -64 35 -185 124 -331 382 -358 633 -14
132 33 239 111 254 19 3 34 9 34 13 0 4 -14 28 -30 55 -34 53 -91 85 -151 86
-23 0 -39 6 -42 14 -3 8 -24 25 -46 38 -45 26 -48 38 -22 87 l18 34 23 -37
c98 -159 320 -56 296 138 -7 54 -7 55 33 95 22 22 55 45 73 50 47 15 142 6
218 -21z m-891 -414 c-19 -79 -14 -276 9 -364 26 -98 89 -242 149 -343 63
-106 204 -253 308 -322 87 -58 304 -167 317 -159 20 13 0 34 -83 89 -230 152
-390 386 -464 680 -38 148 -58 382 -39 453 6 22 7 22 33 6 14 -9 36 -27 49
-40 17 -17 34 -24 63 -24 48 0 90 -20 112 -54 16 -23 16 -25 -2 -31 -35 -11
-81 -68 -96 -119 -32 -106 -11 -276 53 -433 77 -189 225 -360 373 -432 163
-79 317 -79 475 -1 185 90 337 288 416 540 19 62 23 97 23 200 0 118 -2 128
-27 171 -15 25 -42 53 -61 64 -34 18 -35 19 -20 42 22 33 64 53 112 53 32 0
49 8 88 41 47 42 48 42 54 18 12 -41 9 -160 -6 -269 -42 -312 -148 -543 -335
-730 -72 -72 -210 -177 -253 -193 -9 -3 -8 -9 3 -20 14 -14 27 -10 140 46 208
103 318 191 432 341 68 90 152 256 195 386 25 78 28 98 28 235 0 96 -5 162
-13 184 -6 19 -10 36 -7 39 10 10 57 -31 72 -63 16 -33 19 -34 54 -29 29 5 46
1 75 -16 l37 -23 -33 -16 c-51 -25 -67 -56 -104 -201 -44 -175 -93 -295 -166
-408 -149 -231 -414 -428 -676 -504 -71 -21 -100 -23 -274 -22 -186 0 -199 1
-280 28 -241 79 -472 244 -617 441 -93 124 -166 295 -214 500 -26 113 -41 140
-85 163 l-37 19 31 21 c32 24 63 28 91 13 14 -8 21 -2 40 34 19 35 58 70 69
60 1 -1 -3 -24 -9 -51z m-238 -487 c-10 -9 -11 -8 -5 6 3 10 9 15 12 12 3 -3
0 -11 -7 -18z m1095 -453 c18 -3 42 -1 53 6 22 11 22 11 6 -21 -20 -37 -22
-87 -6 -118 30 -55 -67 17 -116 86 -41 58 -41 67 0 59 17 -4 46 -9 63 -12z
m233 -18 c47 -47 20 -134 -46 -151 -51 -12 -113 37 -113 89 0 31 26 69 55 82
37 17 73 10 104 -20z m201 28 c0 -26 -127 -164 -152 -164 -4 0 -3 12 2 26 14
36 12 74 -4 107 l-15 27 38 -6 c22 -3 47 -1 57 5 20 11 74 15 74 5z m648 -291
c-21 -2 -57 -2 -80 0 -24 2 -7 4 37 4 44 0 63 -2 43 -4z m362 -87 c0 -2 -8
-10 -17 -17 -16 -13 -17 -12 -4 4 13 16 21 21 21 13z m-1493 -522 c-3 -3 -12
-4 -19 -1 -8 3 -5 6 6 6 11 1 17 -2 13 -5z"/>
<path d="M2350 3483 c-22 -20 -33 -40 -37 -70 l-6 -42 36 6 c43 7 52 -7 60
-88 10 -109 63 -169 149 -169 88 0 147 71 148 176 0 65 17 88 58 82 31 -4 32
-3 32 30 0 25 -9 43 -34 68 -19 19 -43 34 -54 34 -35 0 -81 -48 -88 -91 -8
-49 -23 -61 -69 -57 -35 3 -38 6 -55 58 -31 91 -83 114 -140 63z m95 -43 c8
-16 15 -40 15 -53 0 -53 80 -82 142 -53 30 14 36 23 41 57 6 45 31 79 57 79
16 0 58 -37 49 -43 -2 -1 -17 -9 -34 -17 -33 -17 -42 -38 -50 -122 -8 -74 -38
-120 -87 -132 -80 -20 -128 33 -143 157 -8 63 -35 107 -66 107 -23 0 -24 8 -2
32 25 28 60 23 78 -12z"/>
<path d="M2520 3287 c-28 -14 -38 -51 -20 -73 7 -7 29 -14 50 -14 68 0 92 62
34 88 -31 15 -33 15 -64 -1z m55 -37 c8 -13 -20 -24 -41 -16 -20 8 -9 26 16
26 10 0 22 -5 25 -10z"/>
<path d="M2406 2878 c-23 -13 -20 -45 10 -96 26 -44 26 -48 15 -110 -25 -134
-109 -361 -144 -391 -15 -12 -24 -10 -68 9 -33 14 -64 20 -83 17 -70 -11 -148
-36 -166 -52 -20 -18 -29 -62 -11 -50 5 3 12 1 16 -5 4 -6 10 -8 15 -5 24 15
61 -9 79 -50 20 -46 54 -85 72 -85 6 0 30 21 54 47 43 46 43 46 69 30 14 -10
34 -34 45 -55 22 -42 42 -63 89 -86 28 -15 31 -19 21 -38 -14 -27 -5 -32 90
-53 69 -16 76 -16 112 0 29 13 51 16 93 11 69 -9 82 8 42 55 -15 17 -25 37
-23 43 7 22 66 47 130 54 101 13 132 40 240 214 9 14 27 28 39 30 34 5 33 34
0 68 -42 41 -96 41 -170 -1 -45 -25 -54 -28 -48 -12 23 57 57 231 62 314 6 83
5 97 -9 102 -12 4 -26 -7 -48 -40 -18 -26 -64 -80 -102 -120 l-70 -74 30 -32
c37 -39 51 -80 60 -170 5 -52 3 -69 -6 -66 -22 8 -181 385 -181 429 0 11 16
40 35 66 36 47 45 87 23 101 -18 11 -292 12 -312 1z m112 -28 c28 -7 64 -7
105 0 34 5 65 6 69 2 5 -5 -6 -28 -24 -52 -18 -24 -37 -49 -43 -56 -6 -9 -2
-37 12 -86 12 -40 19 -76 17 -80 -14 -23 -181 3 -191 29 -3 7 0 41 6 74 12 57
11 62 -13 104 -44 75 -33 87 62 65z m85 -314 l78 -2 19 -42 19 -43 -27 -10
c-64 -25 -257 -5 -269 28 -3 8 0 33 7 58 l12 43 42 -15 c22 -9 76 -16 119 -17z
m-124 -132 c54 -16 180 -16 237 1 19 6 25 -2 48 -61 22 -53 24 -69 14 -75 -41
-26 -214 -23 -333 5 -99 23 -99 24 -77 77 11 24 22 52 26 62 3 10 12 16 19 13
6 -2 37 -12 66 -22z m627 -39 c19 -14 19 -14 -3 -30 -12 -8 -36 -41 -54 -72
-39 -69 -92 -129 -130 -149 -16 -8 -47 -14 -70 -14 -51 0 -124 -33 -145 -65
-14 -21 -14 -27 -1 -52 l15 -28 -42 -1 c-22 0 -55 -8 -73 -17 -23 -12 -39 -14
-60 -8 -15 5 -40 12 -54 15 -21 5 -25 10 -22 33 3 25 -1 30 -47 50 -34 15 -56
32 -68 54 -28 52 -60 86 -93 100 -32 13 -33 12 -75 -35 -24 -26 -48 -45 -53
-42 -5 3 -19 31 -32 61 -15 37 -30 57 -43 60 -12 2 -30 6 -41 8 -16 3 -14 5
10 11 17 4 52 14 78 22 44 14 51 13 94 -6 53 -23 92 -26 118 -6 16 11 31 10
109 -10 122 -31 226 -39 301 -23 33 7 82 12 109 11 52 -2 101 20 93 41 -8 22
13 47 66 77 58 33 84 37 113 15z"/>
<path d="M2475 2831 c-7 -12 12 -24 25 -16 11 7 4 25 -10 25 -5 0 -11 -4 -15
-9z"/>
<path d="M2614 2819 c-3 -6 -1 -16 4 -21 13 -13 45 8 36 23 -7 12 -31 11 -40
-2z"/>
<path d="M3868 4389 c-2 -7 4 -21 14 -31 36 -36 23 -62 -78 -168 -53 -55 -95
-102 -93 -104 2 -2 27 -6 55 -10 l51 -6 48 61 c35 45 50 57 56 47 12 -18 11
-201 -1 -232 -9 -23 -7 -26 24 -32 19 -3 40 -4 48 -2 8 1 66 62 130 133 105
117 114 131 95 137 -43 12 -95 9 -101 -8 -8 -20 -79 -113 -87 -114 -3 0 -9 46
-12 103 -7 115 -23 201 -40 215 -21 17 -104 26 -109 11z"/>
<path d="M857 4113 c-3 -4 -8 -24 -12 -43 -5 -30 2 -51 48 -142 30 -59 64
-133 74 -165 11 -33 26 -58 33 -58 8 0 21 21 29 47 13 44 13 49 -3 67 -18 19
-17 22 29 74 l46 54 49 -10 c63 -12 80 0 80 57 l0 41 -57 1 c-41 0 -89 11
-163 38 -125 45 -146 51 -153 39z m135 -134 l37 -12 -20 -28 c-11 -16 -24 -29
-28 -29 -7 0 -51 72 -51 85 0 4 6 4 13 1 6 -2 29 -10 49 -17z"/>
<path d="M4234 4034 c7 -21 -68 -101 -176 -187 l-56 -45 51 -15 c29 -8 57 -12
64 -8 32 17 243 214 243 227 0 17 -32 31 -92 40 -37 6 -40 5 -34 -12z"/>
<path d="M4347 3906 c-3 -8 -1 -16 5 -18 17 -6 -20 -80 -101 -201 -39 -59 -71
-110 -71 -112 0 -3 18 -14 40 -25 28 -14 45 -18 58 -11 23 12 136 28 260 37
69 4 102 10 99 18 -2 6 -28 25 -58 43 l-54 32 -70 -24 c-38 -14 -82 -25 -96
-25 -27 0 -26 1 38 107 35 60 63 116 61 128 -2 12 -20 28 -48 42 -54 26 -56
27 -63 9z"/>
<path d="M662 3848 c3 -57 5 -62 29 -69 14 -3 48 -19 74 -35 56 -33 61 -29
-97 -69 -58 -15 -120 -36 -137 -46 -29 -17 -31 -23 -31 -74 0 -30 4 -55 10
-55 5 0 20 11 34 25 14 14 32 25 41 25 9 0 71 -36 136 -81 l120 -80 -3 57 -3
58 -57 31 c-32 17 -63 36 -68 41 -17 17 102 47 187 48 l73 1 0 41 c0 41 0 42
-92 99 -51 32 -121 78 -156 102 l-63 43 3 -62z"/>
<path d="M4584 3484 c1 -32 -3 -38 -28 -47 -22 -7 -35 -6 -56 7 -41 23 -50 20
-48 -16 3 -31 1 -33 -62 -56 -35 -12 -65 -24 -67 -25 -1 -2 15 -48 36 -102 38
-96 41 -99 83 -116 23 -9 46 -15 49 -13 4 2 -9 40 -28 85 -19 45 -31 85 -27
89 5 5 21 11 35 15 22 6 29 1 47 -28 19 -32 84 -68 99 -54 3 3 -7 31 -21 63
-15 31 -25 58 -24 59 2 1 13 7 25 14 21 11 24 8 47 -37 18 -36 34 -53 65 -67
23 -10 44 -15 48 -12 3 4 -10 42 -29 84 -20 43 -41 94 -47 113 -10 32 -64 80
-90 80 -4 0 -8 -16 -7 -36z"/>
<path d="M733 3375 c-11 -18 -82 -31 -243 -43 l-105 -7 3 -45 c2 -37 8 -49 35
-69 18 -14 80 -72 139 -130 86 -83 109 -101 114 -87 11 29 -5 97 -28 115 l-21
17 20 60 c19 59 20 59 76 77 51 17 57 21 56 45 -2 65 -28 101 -46 67z m-146
-170 c-6 -19 -13 -35 -16 -35 -3 1 -24 16 -46 35 l-40 35 57 0 56 0 -11 -35z"/>
<path d="M4714 3136 l7 -34 -123 -22 c-68 -11 -138 -24 -157 -26 l-34 -5 42
-43 42 -42 102 23 c56 13 113 22 127 21 33 -4 38 -40 11 -67 -24 -24 -47 -19
-78 17 l-22 25 -33 -25 c-70 -55 -128 -116 -128 -134 0 -11 16 -35 35 -54 l34
-33 10 24 c10 26 40 61 83 98 l27 23 27 -21 c36 -29 85 -27 113 3 31 33 36 91
16 180 -15 68 -20 79 -53 101 -48 33 -55 32 -48 -9z"/>
<path d="M393 3031 c-51 -24 -87 -76 -108 -156 -21 -81 -19 -104 10 -148 31
-45 45 -47 45 -7 0 26 3 30 29 30 27 0 180 -24 229 -37 18 -4 25 2 42 38 28
62 25 98 -12 170 -60 113 -144 153 -235 110z m151 -81 c37 -14 49 -42 36 -90
-9 -35 -14 -40 -40 -40 -56 0 -180 22 -180 33 0 5 9 24 20 42 34 54 104 78
164 55z"/>
<path d="M4500 2708 c-19 -20 -21 -32 -18 -85 4 -71 38 -131 97 -170 69 -47
107 -24 139 83 12 38 28 78 37 89 15 20 15 20 35 -3 20 -24 18 -44 -8 -74 -13
-15 -12 -21 5 -50 42 -72 95 -17 74 77 -23 102 -99 171 -161 145 -25 -10 -33
-22 -46 -69 -30 -112 -57 -148 -89 -121 -31 26 -4 110 35 110 6 0 -3 20 -20
45 -35 51 -50 55 -80 23z"/>
<path d="M287 2611 l-58 -6 33 -43 c25 -33 38 -42 53 -37 11 3 49 8 84 12 l65
6 -65 -74 c-81 -93 -129 -162 -129 -186 0 -23 46 -88 63 -88 7 0 12 12 12 27
1 15 9 36 20 47 17 19 30 21 163 21 l145 0 -36 43 -35 42 -83 -4 -83 -3 32 39
c41 52 116 121 147 135 31 14 31 16 0 51 -24 27 -24 27 -147 25 -68 -1 -149
-4 -181 -7z"/>
<path d="M4460 2375 c0 -15 46 -95 54 -95 6 -1 76 -9 156 -18 80 -10 153 -16
163 -14 25 5 21 38 -9 90 -25 42 -28 44 -40 27 -16 -22 -66 -22 -216 0 -111
17 -108 17 -108 10z"/>
<path d="M490 2169 c-215 -51 -221 -55 -151 -123 37 -36 69 -42 57 -10 -3 9 7
17 32 23 83 22 160 40 216 51 l58 12 -38 39 c-21 21 -41 39 -44 38 -3 0 -61
-14 -130 -30z"/>
<path d="M4745 2140 c-10 -34 -21 -63 -24 -65 -6 -3 -251 57 -283 70 -15 6
-15 0 5 -54 16 -44 28 -63 42 -66 87 -16 146 -28 178 -36 37 -10 37 -10 31
-51 -6 -32 -2 -50 17 -84 13 -24 28 -43 33 -41 5 2 17 44 27 94 10 50 25 115
34 145 17 53 17 56 -3 101 -12 26 -25 47 -30 47 -5 0 -17 -27 -27 -60z"/>
<path d="M595 2025 c-79 -66 -155 -105 -207 -105 -26 0 -48 -4 -48 -9 0 -5 20
-26 45 -47 44 -35 47 -36 84 -25 88 26 181 7 181 -36 0 -53 -115 -224 -161
-238 -28 -9 -20 -23 29 -52 l42 -25 35 35 c32 32 43 36 162 57 71 12 129 23
131 25 1 1 -22 19 -51 39 -47 32 -57 36 -81 26 -54 -20 -58 -14 -31 40 30 58
32 110 7 133 -24 22 -86 47 -117 47 -34 0 -31 12 8 33 17 10 49 32 71 50 l38
33 -41 27 c-22 15 -44 27 -48 27 -5 -1 -26 -16 -48 -35z"/>
<path d="M4660 1810 c0 -17 -54 -38 -138 -54 -87 -16 -111 -13 -192 29 -27 14
-32 15 -27 2 3 -8 8 -35 12 -60 6 -41 12 -49 44 -64 28 -14 55 -46 116 -140
44 -67 86 -122 93 -122 8 -1 12 19 12 69 0 67 -1 70 -30 85 -16 8 -41 32 -55
53 l-25 37 74 13 c105 17 150 34 154 56 7 36 -9 106 -24 106 -8 0 -14 -4 -14
-10z"/>
<path d="M820 1312 c-66 -21 -66 -106 0 -127 20 -6 59 9 72 29 30 44 -22 114
-72 98z"/>
<path d="M4242 1310 c-53 -22 -51 -97 3 -122 49 -22 102 27 88 81 -4 17 -51
53 -65 50 -2 0 -13 -4 -26 -9z"/>
<path d="M3924 1025 c-29 -23 -31 -26 -24 -72 5 -26 7 -49 5 -51 -1 -1 -23 6
-49 15 -31 12 -51 14 -60 8 -68 -50 -199 -136 -234 -154 -24 -12 -42 -26 -40
-30 2 -4 32 -58 67 -119 l64 -111 29 15 c15 8 28 18 28 22 0 4 -22 45 -49 92
l-50 84 27 18 c15 10 30 18 34 18 5 0 33 -38 64 -85 l57 -84 28 20 28 20 -56
86 -57 85 27 20 c15 11 27 26 27 34 0 11 14 9 66 -10 62 -23 74 -32 110 -83
20 -28 36 -29 59 -3 17 19 17 21 -19 67 -29 37 -36 55 -37 92 0 25 -4 65 -7
88 l-7 43 -31 -25z"/>
<path d="M1186 969 c-60 -16 -106 -81 -106 -150 0 -35 6 -48 38 -79 21 -22 56
-43 81 -51 l44 -13 39 43 c21 24 38 47 38 51 0 4 -21 24 -47 44 l-47 37 -20
-20 -20 -21 22 -23 c24 -25 21 -39 -6 -30 -59 21 -69 78 -23 124 16 16 38 29
48 29 28 0 66 -39 60 -61 -3 -12 4 -24 19 -34 33 -21 42 -19 49 15 18 80 -82
162 -169 139z"/>
<path d="M1332 756 c-40 -58 -72 -108 -72 -113 1 -4 39 -34 85 -65 85 -56 85
-56 100 -35 8 12 15 24 15 28 0 3 -25 23 -55 43 -49 32 -54 39 -45 56 14 25
13 26 65 -10 51 -35 61 -37 75 -11 14 27 15 25 -39 61 -33 20 -48 36 -44 46 3
8 9 14 14 14 12 0 109 -63 109 -72 0 -3 -18 -45 -40 -93 -22 -48 -40 -89 -40
-91 0 -2 13 -10 29 -18 l28 -15 28 62 28 62 11 -78 c10 -71 14 -80 39 -94 16
-8 30 -13 32 -11 7 6 115 241 113 243 -8 6 -48 25 -53 25 -3 0 -19 -27 -35
-61 -31 -67 -31 -68 -45 49 -7 49 -10 54 -48 74 -23 11 -68 38 -99 60 -32 21
-64 41 -71 44 -8 3 -40 -35 -85 -100z"/>
<path d="M3420 703 c-31 -11 -70 -58 -76 -90 -13 -68 46 -163 111 -179 63 -16
145 48 145 112 0 34 -1 35 -32 32 -27 -2 -34 -8 -36 -28 -5 -36 -22 -51 -51
-48 -29 3 -71 58 -71 93 0 41 51 70 77 44 9 -9 18 -8 37 5 32 20 32 30 4 50
-22 16 -78 20 -108 9z"/>
<path d="M3103 585 c-38 -16 -67 -58 -60 -85 4 -17 0 -16 -29 10 -28 24 -44
30 -82 30 -47 0 -112 -29 -112 -50 0 -5 -4 -10 -10 -10 -5 0 -10 10 -10 21 0
21 -3 22 -67 16 -38 -4 -98 -7 -135 -7 l-68 0 -1 -42 c-1 -24 -4 -53 -8 -66
-5 -21 -10 -16 -44 42 -35 61 -40 66 -72 66 l-35 0 0 -135 0 -135 30 0 30 0 0
65 c0 36 3 65 8 65 4 0 23 -29 42 -64 30 -56 38 -65 67 -68 41 -5 43 1 43 112
0 92 4 100 50 100 19 0 30 -41 30 -111 0 -20 3 -51 6 -68 6 -29 10 -32 38 -29
35 3 33 -6 22 136 l-6 82 35 0 35 0 0 -52 c0 -113 86 -175 184 -134 38 16 76
60 76 88 0 17 4 16 29 -11 23 -25 37 -31 71 -31 70 0 130 45 130 98 0 13 -13
37 -29 53 -26 26 -36 29 -90 29 -63 0 -77 11 -40 30 16 9 24 8 38 -4 14 -13
24 -14 49 -5 28 9 30 13 20 34 -19 43 -77 56 -135 30z m-134 -131 c56 -72 -12
-172 -74 -110 -18 18 -25 36 -25 62 0 70 59 98 99 48z m180 -24 c49 -4 66 -9
66 -20 0 -8 -12 -19 -27 -24 -22 -8 -32 -6 -48 9 -17 15 -24 16 -46 6 -31 -14
-29 -15 -38 28 -5 30 -4 32 11 20 9 -8 46 -16 82 -19z"/>
<path d="M1955 555 c-46 -45 -25 -93 66 -157 19 -12 21 -19 12 -28 -21 -22
-63 -3 -70 30 -3 20 -12 30 -23 30 -10 0 -25 3 -34 6 -13 5 -16 -1 -16 -28 0
-61 54 -108 125 -108 48 0 70 13 85 49 19 46 5 77 -50 117 -50 36 -62 54 -36
54 28 0 46 -12 46 -31 0 -12 10 -21 33 -27 30 -8 32 -7 35 19 4 39 -14 68 -53
85 -52 21 -92 18 -120 -11z"/>
<path d="M2150 411 c-39 -68 -69 -125 -68 -126 2 -2 18 -6 35 -10 29 -6 34 -3
44 19 10 21 19 26 48 26 45 0 58 -8 66 -42 5 -20 14 -27 38 -31 18 -2 34 -3
36 -1 3 3 -10 67 -29 143 l-34 139 -33 4 c-33 4 -33 3 -103 -121z m100 -18 c0
-7 -9 -13 -20 -13 -17 0 -18 3 -8 25 8 19 14 22 20 13 4 -7 8 -19 8 -25z"/>
<path d="M1702 435 c-16 -34 -17 -31 18 -44 28 -9 31 -8 45 19 14 27 14 30 -4
40 -31 16 -47 12 -59 -15z"/>
</g>
</svg>
